# xmcd
# 
# Track frame offsets:
#     150
#     11401
#     26907
#     43193
#     67598
#     75104
#     93309
#     111784
#     130811
#     156542
#     173904
#     188293
# 
# Disc length: 2928
# 
# Revision: 0
# Processed by: cddbd v1.5.2PL0 Copyright (c) Steve Scherf et al.
# Submitted via: fre:ac v1.1beta1pre4
# 
DISCID=870b6e0c
DTITLE=Bryce Yoder - Steppin Out
DYEAR=2000
DGENRE=Blues
TTITLE0=Steppin' Out
TTITLE1=Get With the Groove
TTITLE2=Can't Stay Here Tomorrow
TTITLE3=Would You Leave Me?
TTITLE4=Spanking the Plank
TTITLE5=French Song
TTITLE6=Knock Me
TTITLE7=Too Long
TTITLE8=Puppets
TTITLE9=Swingin' Groovin'
TTITLE10=People's Groove
TTITLE11=Playin' For Tips
EXTD=
EXTT0=
EXTT1=
EXTT2=
EXTT3=
EXTT4=
EXTT5=
EXTT6=
EXTT7=
EXTT8=
EXTT9=
EXTT10=
EXTT11=
PLAYORDER=
